<?xml version="1.0" encoding="UTF-8"?>
<svg id="exportSvg" xmlns="http://www.w3.org/2000/svg" xmlns:xlink="http://www.w3.org/1999/xlink" version="1.1" viewBox="0 0 426.02 609.46">
  <!-- Generator: Adobe Illustrator 29.6.0, SVG Export Plug-In . SVG Version: 2.1.1 Build 207)  -->
  <defs>
    <style>
      .st0 {
        fill: none;
      }

      .st1 {
        fill: #333;
      }

      .st1, .st2, .st3, .st4, .st5 {
        isolation: isolate;
      }

      .st1, .st2, .st4 {
        font-size: 5.95px;
      }

      .st1, .st2, .st4, .st5 {
        font-family: ArialMT, Arial;
      }

      .st6 {
        fill: #ee493a;
      }

      .st2 {
        fill: #181818;
      }

      .st7 {
        fill: #c4c4c4;
      }

      .st8, .st4 {
        fill: #fff;
      }

      .st5 {
        fill: #888;
        font-size: 5.45px;
      }

      .st9 {
        clip-path: url(#clippath);
      }
    </style>
    <clipPath id="clippath">
      <rect class="st0" x="28.71" y="25.41" width="371.93" height="573.64"/>
    </clipPath>
  </defs>
  <rect class="st8" width="423.34" height="609.46"/>
  <g class="st9">
    <g id="__svelte-dw-svg">
      <g id="container-svg_container-body-svg_datawrapper-D8ZUr-8pdpge-svg">
        <g id="container-svg_container-bodyTop-svg_datawrapper-D8ZUr-lmtz6e-svg">
          <g id="container-svg_container-bodyCenter-svg_datawrapper-D8ZUr-1fgvipr-svg">
            <g id="chart-svg">
              <g class="st3">
                <text class="st2" transform="translate(29.33 32.74) scale(1.25 1)"><tspan x="0" y="0">Akita</tspan></text>
              </g>
              <rect class="st7" x="72.81" y="25.41" width="327.21" height="9.92"/>
              <g class="st3">
                <text class="st2" transform="translate(29.33 44.64) scale(1.25 1)"><tspan x="0" y="0">Kochi</tspan></text>
              </g>
              <rect class="st7" x="72.81" y="37.31" width="303.18" height="9.92"/>
              <g class="st3">
                <text class="st2" transform="translate(29.33 56.54) scale(1.25 1)"><tspan x="0" y="0">Aomori</tspan></text>
              </g>
              <rect class="st7" x="72.81" y="49.2" width="295.74" height="9.92"/>
              <g class="st3">
                <text class="st2" transform="translate(29.33 68.44) scale(1.25 1)"><tspan x="0" y="0">Tokushima</tspan></text>
              </g>
              <rect class="st7" x="72.81" y="61.1" width="295.74" height="9.92"/>
              <g class="st3">
                <text class="st2" transform="translate(29.33 80.34) scale(1.25 1)"><tspan x="0" y="0">Yamagata</tspan></text>
              </g>
              <rect class="st7" x="72.81" y="73" width="294.9" height="9.92"/>
              <g class="st3">
                <text class="st2" transform="translate(29.33 92.24) scale(1.25 1)"><tspan x="0" y="0">Yamaguchi</tspan></text>
              </g>
              <rect class="st7" x="72.81" y="84.9" width="294.08" height="9.92"/>
              <g class="st3">
                <text class="st2" transform="translate(29.33 104.14) scale(1.25 1)"><tspan x="0" y="0">Iwate</tspan></text>
              </g>
              <rect class="st7" x="72.81" y="96.8" width="293.25" height="9.92"/>
              <g class="st3">
                <text class="st2" transform="translate(29.33 116.04) scale(1.25 1)"><tspan x="0" y="0">Shimane</tspan></text>
              </g>
              <rect class="st7" x="72.81" y="108.7" width="291.59" height="9.92"/>
              <g class="st3">
                <text class="st2" transform="translate(29.33 127.94) scale(1.25 1)"><tspan x="0" y="0">Nagasaki</tspan></text>
              </g>
              <rect class="st7" x="72.81" y="120.6" width="287.45" height="9.92"/>
              <g class="st3">
                <text class="st2" transform="translate(29.33 139.84) scale(1.25 1)"><tspan x="0" y="0">Ehime</tspan></text>
              </g>
              <rect class="st7" x="72.81" y="132.5" width="285.79" height="9.92"/>
              <g class="st3">
                <text class="st2" transform="translate(29.33 151.74) scale(1.25 1)"><tspan x="0" y="0">Wakayama</tspan></text>
              </g>
              <rect class="st7" x="72.81" y="144.4" width="285.79" height="9.92"/>
              <g class="st3">
                <text class="st2" transform="translate(29.33 163.63) scale(1.25 1)"><tspan x="0" y="0">Oita</tspan></text>
              </g>
              <rect class="st7" x="72.81" y="156.3" width="284.97" height="9.92"/>
              <g class="st3">
                <text class="st2" transform="translate(29.33 175.53) scale(1.25 1)"><tspan x="0" y="0">Niigata</tspan></text>
              </g>
              <rect class="st7" x="72.81" y="168.2" width="283.31" height="9.92"/>
              <g class="st3">
                <text class="st2" transform="translate(29.33 187.43) scale(1.25 1)"><tspan x="0" y="0">Kagoshima</tspan></text>
              </g>
              <rect class="st7" x="72.81" y="180.1" width="283.31" height="9.92"/>
              <g class="st3">
                <text class="st2" transform="translate(29.33 199.33) scale(1.25 1)"><tspan x="0" y="0">Miyazaki</tspan></text>
              </g>
              <rect class="st7" x="72.81" y="192" width="280.82" height="9.92"/>
              <g class="st3">
                <text class="st2" transform="translate(29.33 211.23) scale(1.25 1)"><tspan x="0" y="0">Tottori</tspan></text>
              </g>
              <rect class="st7" x="72.81" y="203.9" width="279.16" height="9.92"/>
              <g class="st3">
                <text class="st2" transform="translate(29.33 223.13) scale(1.25 1)"><tspan x="0" y="0">Fukushima</tspan></text>
              </g>
              <rect class="st7" x="72.81" y="215.79" width="279.16" height="9.92"/>
              <g class="st3">
                <text class="st2" transform="translate(29.33 235.03) scale(1.25 1)"><tspan x="0" y="0">Hokkaido</tspan></text>
              </g>
              <rect class="st7" x="72.81" y="227.69" width="275.85" height="9.92"/>
              <g class="st3">
                <text class="st2" transform="translate(29.33 246.93) scale(1.25 1)"><tspan x="0" y="0">Toyama</tspan></text>
              </g>
              <rect class="st6" x="72.81" y="239.59" width="275.02" height="9.92"/>
              <g class="st3">
                <text class="st2" transform="translate(29.33 258.83) scale(1.25 1)"><tspan x="0" y="0">Nara</tspan></text>
              </g>
              <rect class="st6" x="72.81" y="251.49" width="272.54" height="9.92"/>
              <g class="st3">
                <text class="st2" transform="translate(29.33 270.73) scale(1.25 1)"><tspan x="0" y="0">Nagano</tspan></text>
              </g>
              <rect class="st7" x="72.81" y="263.39" width="272.54" height="9.92"/>
              <g class="st3">
                <text class="st2" transform="translate(29.33 282.63) scale(1.25 1)"><tspan x="0" y="0">Kagawa</tspan></text>
              </g>
              <rect class="st7" x="72.81" y="275.29" width="271.71" height="9.92"/>
              <g class="st3">
                <text class="st2" transform="translate(29.33 294.53) scale(1.25 1)"><tspan x="0" y="0">Kumamoto</tspan></text>
              </g>
              <rect class="st7" x="72.81" y="287.19" width="270.05" height="9.92"/>
              <g class="st3">
                <text class="st2" transform="translate(29.33 306.43) scale(1.25 1)"><tspan x="0" y="0">Saga</tspan></text>
              </g>
              <rect class="st7" x="72.81" y="299.09" width="265.08" height="9.92"/>
              <g class="st3">
                <text class="st2" transform="translate(29.33 318.33) scale(1.25 1)"><tspan x="0" y="0">Yamanashi</tspan></text>
              </g>
              <rect class="st7" x="72.81" y="310.99" width="265.08" height="9.92"/>
              <g class="st3">
                <text class="st2" transform="translate(29.33 330.22) scale(1.25 1)"><tspan x="0" y="0">Fukui</tspan></text>
              </g>
              <rect class="st7" x="72.81" y="322.89" width="263.42" height="9.92"/>
              <g class="st3">
                <text class="st2" transform="translate(29.33 342.12) scale(1.25 1)"><tspan x="0" y="0">Gifu</tspan></text>
              </g>
              <rect class="st7" x="72.81" y="334.79" width="260.11" height="9.92"/>
              <g class="st3">
                <text class="st2" transform="translate(29.33 354.02) scale(1.25 1)"><tspan x="0" y="0">Shizuoka</tspan></text>
              </g>
              <rect class="st7" x="72.81" y="346.69" width="258.46" height="9.92"/>
              <g class="st3">
                <text class="st2" transform="translate(29.33 365.92) scale(1.25 1)"><tspan x="0" y="0">Okayama</tspan></text>
              </g>
              <rect class="st7" x="72.81" y="358.59" width="258.46" height="9.92"/>
              <g class="st3">
                <text class="st2" transform="translate(29.33 377.82) scale(1.25 1)"><tspan x="0" y="0">Gunma</tspan></text>
              </g>
              <rect class="st7" x="72.81" y="370.49" width="257.62" height="9.92"/>
              <g class="st3">
                <text class="st2" transform="translate(29.33 389.72) scale(1.25 1)"><tspan x="0" y="0">Ibaraki</tspan></text>
              </g>
              <rect class="st7" x="72.81" y="382.38" width="255.97" height="9.92"/>
              <g class="st3">
                <text class="st2" transform="translate(29.33 401.62) scale(1.25 1)"><tspan x="0" y="0">Mie</tspan></text>
              </g>
              <rect class="st7" x="72.81" y="394.28" width="255.97" height="9.92"/>
              <g class="st3">
                <text class="st2" transform="translate(29.33 413.52) scale(1.25 1)"><tspan x="0" y="0">Ishikawa</tspan></text>
              </g>
              <rect class="st7" x="72.81" y="406.18" width="254.31" height="9.92"/>
              <g class="st3">
                <text class="st2" transform="translate(29.33 425.42) scale(1.25 1)"><tspan x="0" y="0">Tochigi</tspan></text>
              </g>
              <rect class="st7" x="72.81" y="418.08" width="252.65" height="9.92"/>
              <g class="st3">
                <text class="st2" transform="translate(29.33 437.32) scale(1.25 1)"><tspan x="0" y="0">Hiroshima</tspan></text>
              </g>
              <rect class="st7" x="72.81" y="429.98" width="251.83" height="9.92"/>
              <g class="st3">
                <text class="st2" transform="translate(29.33 449.22) scale(1.25 1)"><tspan x="0" y="0">Hyogo</tspan></text>
              </g>
              <rect class="st6" x="72.81" y="441.88" width="250.17" height="9.92"/>
              <g class="st3">
                <text class="st2" transform="translate(29.33 461.12) scale(1.25 1)"><tspan x="0" y="0">Kyoto</tspan></text>
              </g>
              <rect class="st7" x="72.81" y="453.78" width="246.86" height="9.92"/>
              <g class="st3">
                <text class="st2" transform="translate(29.33 473.02) scale(1.25 1)"><tspan x="0" y="0">Miyagi</tspan></text>
              </g>
              <rect class="st7" x="72.81" y="465.68" width="245.21" height="9.92"/>
              <g class="st3">
                <text class="st2" transform="translate(29.33 484.92) scale(1.25 1)"><tspan x="0" y="0">Fukuoka</tspan></text>
              </g>
              <rect class="st7" x="72.81" y="477.58" width="236.91" height="9.92"/>
              <g class="st3">
                <text class="st2" transform="translate(29.33 496.81) scale(1.25 1)"><tspan x="0" y="0">Chiba</tspan></text>
              </g>
              <rect class="st7" x="72.81" y="489.48" width="232.78" height="9.92"/>
              <g class="st3">
                <text class="st2" transform="translate(29.33 508.71) scale(1.25 1)"><tspan x="0" y="0">Osaka</tspan></text>
              </g>
              <rect class="st6" x="72.81" y="501.38" width="228.63" height="9.92"/>
              <g class="st3">
                <text class="st2" transform="translate(29.33 520.61) scale(1.25 1)"><tspan x="0" y="0">Saitama</tspan></text>
              </g>
              <rect class="st6" x="72.81" y="513.28" width="227.81" height="9.92"/>
              <g class="st3">
                <text class="st2" transform="translate(29.33 532.51) scale(1.25 1)"><tspan x="0" y="0">Shiga</tspan></text>
              </g>
              <rect class="st7" x="72.81" y="525.18" width="226.15" height="9.92"/>
              <g class="st3">
                <text class="st2" transform="translate(29.33 544.41) scale(1.25 1)"><tspan x="0" y="0">Kanagawa</tspan></text>
              </g>
              <rect class="st7" x="72.81" y="537.08" width="215.38" height="9.92"/>
              <g class="st3">
                <text class="st2" transform="translate(29.33 556.31) scale(1.25 1)"><tspan x="0" y="0">Aichi</tspan></text>
              </g>
              <rect class="st7" x="72.81" y="548.97" width="213.73" height="9.92"/>
              <g class="st3">
                <text class="st2" transform="translate(29.33 568.21) scale(1.25 1)"><tspan x="0" y="0">Okinawa</tspan></text>
              </g>
              <rect class="st7" x="72.81" y="560.87" width="200.47" height="9.92"/>
              <g class="st3">
                <text class="st2" transform="translate(29.33 580.11) scale(1.25 1)"><tspan x="0" y="0">Tokyo</tspan></text>
              </g>
              <rect class="st7" x="72.81" y="572.77" width="188.04" height="9.92"/>
              <g class="st3">
                <text class="st1" transform="translate(75.91 32.84) scale(1.25 1)"><tspan x="0" y="0">39.5%</tspan></text>
              </g>
              <g class="st3">
                <text class="st1" transform="translate(75.91 44.74) scale(1.25 1)"><tspan x="0" y="0">36.6%</tspan></text>
              </g>
              <g class="st3">
                <text class="st1" transform="translate(75.91 56.64) scale(1.25 1)"><tspan x="0" y="0">35.7%</tspan></text>
              </g>
              <g class="st3">
                <text class="st1" transform="translate(75.91 68.54) scale(1.25 1)"><tspan x="0" y="0">35.7%</tspan></text>
              </g>
              <g class="st3">
                <text class="st1" transform="translate(75.91 80.44) scale(1.25 1)"><tspan x="0" y="0">35.6%</tspan></text>
              </g>
              <g class="st3">
                <text class="st1" transform="translate(75.91 92.34) scale(1.25 1)"><tspan x="0" y="0">35.5%</tspan></text>
              </g>
              <g class="st3">
                <text class="st1" transform="translate(75.91 104.24) scale(1.25 1)"><tspan x="0" y="0">35.4%</tspan></text>
              </g>
              <g class="st3">
                <text class="st1" transform="translate(75.91 116.14) scale(1.25 1)"><tspan x="0" y="0">35.2%</tspan></text>
              </g>
              <g class="st3">
                <text class="st1" transform="translate(75.91 128.04) scale(1.25 1)"><tspan x="0" y="0">34.7%</tspan></text>
              </g>
              <g class="st3">
                <text class="st1" transform="translate(75.91 139.94) scale(1.25 1)"><tspan x="0" y="0">34.5%</tspan></text>
              </g>
              <g class="st3">
                <text class="st1" transform="translate(75.91 151.84) scale(1.25 1)"><tspan x="0" y="0">34.5%</tspan></text>
              </g>
              <g class="st3">
                <text class="st1" transform="translate(75.91 163.73) scale(1.25 1)"><tspan x="0" y="0">34.4%</tspan></text>
              </g>
              <g class="st3">
                <text class="st1" transform="translate(75.91 175.63) scale(1.25 1)"><tspan x="0" y="0">34.2%</tspan></text>
              </g>
              <g class="st3">
                <text class="st1" transform="translate(75.91 187.53) scale(1.25 1)"><tspan x="0" y="0">34.2%</tspan></text>
              </g>
              <g class="st3">
                <text class="st1" transform="translate(75.91 199.43) scale(1.25 1)"><tspan x="0" y="0">33.9%</tspan></text>
              </g>
              <g class="st3">
                <text class="st1" transform="translate(75.91 211.33) scale(1.25 1)"><tspan x="0" y="0">33.7%</tspan></text>
              </g>
              <g class="st3">
                <text class="st1" transform="translate(75.91 223.23) scale(1.25 1)"><tspan x="0" y="0">33.7%</tspan></text>
              </g>
              <g class="st3">
                <text class="st1" transform="translate(75.91 235.13) scale(1.25 1)"><tspan x="0" y="0">33.3%</tspan></text>
              </g>
              <g class="st3">
                <text class="st4" transform="translate(75.91 247.03) scale(1.25 1)"><tspan x="0" y="0">33.2%</tspan></text>
              </g>
              <g class="st3">
                <text class="st4" transform="translate(75.91 258.93) scale(1.25 1)"><tspan x="0" y="0">32.9%</tspan></text>
              </g>
              <g class="st3">
                <text class="st1" transform="translate(75.91 270.83) scale(1.25 1)"><tspan x="0" y="0">32.9%</tspan></text>
              </g>
              <g class="st3">
                <text class="st1" transform="translate(75.91 282.73) scale(1.25 1)"><tspan x="0" y="0">32.8%</tspan></text>
              </g>
              <g class="st3">
                <text class="st1" transform="translate(75.91 294.63) scale(1.25 1)"><tspan x="0" y="0">32.6%</tspan></text>
              </g>
              <g class="st3">
                <text class="st1" transform="translate(75.91 306.53) scale(1.25 1)"><tspan x="0" y="0">32.0%</tspan></text>
              </g>
              <g class="st3">
                <text class="st1" transform="translate(75.91 318.43) scale(1.25 1)"><tspan x="0" y="0">32.0%</tspan></text>
              </g>
              <g class="st3">
                <text class="st1" transform="translate(75.91 330.33) scale(1.25 1)"><tspan x="0" y="0">31.8%</tspan></text>
              </g>
              <g class="st3">
                <text class="st1" transform="translate(75.91 342.22) scale(1.25 1)"><tspan x="0" y="0">31.4%</tspan></text>
              </g>
              <g class="st3">
                <text class="st1" transform="translate(75.91 354.12) scale(1.25 1)"><tspan x="0" y="0">31.2%</tspan></text>
              </g>
              <g class="st3">
                <text class="st1" transform="translate(75.91 366.02) scale(1.25 1)"><tspan x="0" y="0">31.2%</tspan></text>
              </g>
              <g class="st3">
                <text class="st1" transform="translate(75.91 377.92) scale(1.25 1)"><tspan x="0" y="0">31.1%</tspan></text>
              </g>
              <g class="st3">
                <text class="st1" transform="translate(75.91 389.82) scale(1.25 1)"><tspan x="0" y="0">30.9%</tspan></text>
              </g>
              <g class="st3">
                <text class="st1" transform="translate(75.91 401.72) scale(1.25 1)"><tspan x="0" y="0">30.9%</tspan></text>
              </g>
              <g class="st3">
                <text class="st1" transform="translate(75.91 413.62) scale(1.25 1)"><tspan x="0" y="0">30.7%</tspan></text>
              </g>
              <g class="st3">
                <text class="st1" transform="translate(75.91 425.52) scale(1.25 1)"><tspan x="0" y="0">30.5%</tspan></text>
              </g>
              <g class="st3">
                <text class="st1" transform="translate(75.91 437.42) scale(1.25 1)"><tspan x="0" y="0">30.4%</tspan></text>
              </g>
              <g class="st3">
                <text class="st4" transform="translate(75.91 449.32) scale(1.25 1)"><tspan x="0" y="0">30.2%</tspan></text>
              </g>
              <g class="st3">
                <text class="st1" transform="translate(75.91 461.22) scale(1.25 1)"><tspan x="0" y="0">29.8%</tspan></text>
              </g>
              <g class="st3">
                <text class="st1" transform="translate(75.91 473.12) scale(1.25 1)"><tspan x="0" y="0">29.6%</tspan></text>
              </g>
              <g class="st3">
                <text class="st1" transform="translate(75.91 485.02) scale(1.25 1)"><tspan x="0" y="0">28.6%</tspan></text>
              </g>
              <g class="st3">
                <text class="st1" transform="translate(75.91 496.91) scale(1.25 1)"><tspan x="0" y="0">28.1%</tspan></text>
              </g>
              <g class="st3">
                <text class="st4" transform="translate(75.91 508.81) scale(1.25 1)"><tspan x="0" y="0">27.6%</tspan></text>
              </g>
              <g class="st3">
                <text class="st4" transform="translate(75.91 520.71) scale(1.25 1)"><tspan x="0" y="0">27.5%</tspan></text>
              </g>
              <g class="st3">
                <text class="st1" transform="translate(75.91 532.61) scale(1.25 1)"><tspan x="0" y="0">27.3%</tspan></text>
              </g>
              <g class="st3">
                <text class="st1" transform="translate(75.91 544.51) scale(1.25 1)"><tspan x="0" y="0">26.0%</tspan></text>
              </g>
              <g class="st3">
                <text class="st1" transform="translate(75.91 556.41) scale(1.25 1)"><tspan x="0" y="0">25.8%</tspan></text>
              </g>
              <g class="st3">
                <text class="st1" transform="translate(75.91 568.31) scale(1.25 1)"><tspan x="0" y="0">24.2%</tspan></text>
              </g>
              <g class="st3">
                <text class="st1" transform="translate(75.91 580.21) scale(1.25 1)"><tspan x="0" y="0">22.7%</tspan></text>
              </g>
            </g>
          </g>
        </g>
        <g id="container-svg_container-footer-svg_datawrapper-D8ZUr-1la8dcw-svg">
          <g class="st3">
            <text class="st5" transform="translate(28.71 598.06) scale(1.25 1)"><tspan x="0" y="0">Created with</tspan></text>
            <text class="st5" transform="translate(68.69 598.06) scale(1.25 1)"><tspan x="0" y="0">Datawrapper</tspan></text>
          </g>
        </g>
      </g>
    </g>
  </g>
</svg>